<svg width="32" height="32" viewBox="0 0 32 32" fill="none" xmlns="http://www.w3.org/2000/svg">
<rect width="32" height="32" rx="8" fill="white"/>
<path d="M10.9997 17.6668C10.5413 17.6668 10.149 17.5036 9.82259 17.1772C9.4962 16.8509 9.33301 16.4585 9.33301 16.0002C9.33301 15.5418 9.4962 15.1495 9.82259 14.8231C10.149 14.4967 10.5413 14.3335 10.9997 14.3335C11.458 14.3335 11.8504 14.4967 12.1768 14.8231C12.5031 15.1495 12.6663 15.5418 12.6663 16.0002C12.6663 16.4585 12.5031 16.8509 12.1768 17.1772C11.8504 17.5036 11.458 17.6668 10.9997 17.6668ZM15.9997 17.6668C15.5413 17.6668 15.149 17.5036 14.8226 17.1772C14.4962 16.8509 14.333 16.4585 14.333 16.0002C14.333 15.5418 14.4962 15.1495 14.8226 14.8231C15.149 14.4967 15.5413 14.3335 15.9997 14.3335C16.458 14.3335 16.8504 14.4967 17.1768 14.8231C17.5031 15.1495 17.6663 15.5418 17.6663 16.0002C17.6663 16.4585 17.5031 16.8509 17.1768 17.1772C16.8504 17.5036 16.458 17.6668 15.9997 17.6668ZM20.9997 17.6668C20.5413 17.6668 20.149 17.5036 19.8226 17.1772C19.4962 16.8509 19.333 16.4585 19.333 16.0002C19.333 15.5418 19.4962 15.1495 19.8226 14.8231C20.149 14.4967 20.5413 14.3335 20.9997 14.3335C21.458 14.3335 21.8504 14.4967 22.1768 14.8231C22.5031 15.1495 22.6663 15.5418 22.6663 16.0002C22.6663 16.4585 22.5031 16.8509 22.1768 17.1772C21.8504 17.5036 21.458 17.6668 20.9997 17.6668Z" fill="#424242"/>
</svg>
