<svg width="24" height="24" viewBox="0 0 24 24" fill="none" xmlns="http://www.w3.org/2000/svg">
<path d="M12 17.3996C13.2 17.3996 14.2 16.9913 15 16.1746C15.8 15.3579 16.2 14.3663 16.2 13.1996C16.2 12.0496 15.8 11.0621 15 10.2371C14.2 9.41211 13.2 8.99961 12 8.99961C10.8 8.99961 9.79999 9.41211 8.99999 10.2371C8.19999 11.0621 7.79999 12.0538 7.79999 13.2121C7.79999 14.3704 8.19999 15.3579 8.99999 16.1746C9.79999 16.9913 10.8 17.3996 12 17.3996ZM12 15.5996C11.3 15.5996 10.725 15.3652 10.275 14.8964C9.82499 14.4275 9.59999 13.8536 9.59999 13.1746C9.59999 12.5096 9.82499 11.9475 10.275 11.4884C10.725 11.0292 11.3 10.7996 12 10.7996C12.7 10.7996 13.275 11.0292 13.725 11.4884C14.175 11.9475 14.4 12.5096 14.4 13.1746C14.4 13.8536 14.175 14.4275 13.725 14.8964C13.275 15.3652 12.7 15.5996 12 15.5996ZM4.19999 20.3996C3.71666 20.3996 3.29583 20.2204 2.93749 19.8621C2.57916 19.5038 2.39999 19.0829 2.39999 18.5996V7.79961C2.39999 7.31628 2.57916 6.89544 2.93749 6.53711C3.29583 6.17878 3.71666 5.99961 4.19999 5.99961H7.19999L8.99999 3.59961H15L16.8 5.99961H19.8C20.295 5.99961 20.7187 6.17878 21.0712 6.53711C21.4237 6.89544 21.6 7.31628 21.6 7.79961V18.5996C21.6 19.0829 21.4237 19.5038 21.0712 19.8621C20.7187 20.2204 20.295 20.3996 19.8 20.3996H4.19999ZM4.19999 18.5996H19.8V7.79961H15.9L14.0975 5.39961H9.89999L8.09999 7.79961H4.19999V18.5996Z" fill="#424242"/>
</svg>
