<svg width="25" height="24" viewBox="0 0 25 24" fill="none" xmlns="http://www.w3.org/2000/svg">
<path d="M2.30078 22L7.30078 8L16.3008 17L2.30078 22ZM5.60078 18.7L12.6508 16.2L8.10078 11.65L5.60078 18.7ZM14.8508 12.55L13.8008 11.5L19.4008 5.9C19.9341 5.36667 20.5758 5.1 21.3258 5.1C22.0758 5.1 22.7174 5.36667 23.2508 5.9L23.8508 6.5L22.8008 7.55L22.2008 6.95C21.9674 6.71667 21.6758 6.6 21.3258 6.6C20.9758 6.6 20.6841 6.71667 20.4508 6.95L14.8508 12.55ZM10.8508 8.55L9.80078 7.5L10.4008 6.9C10.6341 6.66667 10.7508 6.38333 10.7508 6.05C10.7508 5.71667 10.6341 5.43333 10.4008 5.2L9.75078 4.55L10.8008 3.5L11.4508 4.15C11.9841 4.68333 12.2508 5.31667 12.2508 6.05C12.2508 6.78333 11.9841 7.41667 11.4508 7.95L10.8508 8.55ZM12.8508 10.55L11.8008 9.5L15.4008 5.9C15.6341 5.66667 15.7508 5.375 15.7508 5.025C15.7508 4.675 15.6341 4.38333 15.4008 4.15L13.8008 2.55L14.8508 1.5L16.4508 3.1C16.9841 3.63333 17.2508 4.275 17.2508 5.025C17.2508 5.775 16.9841 6.41667 16.4508 6.95L12.8508 10.55ZM16.8508 14.55L15.8008 13.5L17.4008 11.9C17.9341 11.3667 18.5758 11.1 19.3258 11.1C20.0758 11.1 20.7174 11.3667 21.2508 11.9L22.8508 13.5L21.8008 14.55L20.2008 12.95C19.9674 12.7167 19.6758 12.6 19.3258 12.6C18.9758 12.6 18.6841 12.7167 18.4508 12.95L16.8508 14.55Z" fill="#424242"/>
</svg>
