<svg width="25" height="24" viewBox="0 0 25 24" fill="none" xmlns="http://www.w3.org/2000/svg">
<path d="M4.5 17V19H20.5V17H4.5ZM4.5 6H6.7C6.61667 5.85 6.5625 5.69167 6.5375 5.525C6.5125 5.35833 6.5 5.18333 6.5 5C6.5 4.16667 6.79167 3.45833 7.375 2.875C7.95833 2.29167 8.66667 2 9.5 2C10 2 10.4625 2.12917 10.8875 2.3875C11.3125 2.64583 11.6833 2.96667 12 3.35L12.5 4L13 3.35C13.3 2.95 13.6667 2.625 14.1 2.375C14.5333 2.125 15 2 15.5 2C16.3333 2 17.0417 2.29167 17.625 2.875C18.2083 3.45833 18.5 4.16667 18.5 5C18.5 5.18333 18.4875 5.35833 18.4625 5.525C18.4375 5.69167 18.3833 5.85 18.3 6H20.5C21.05 6 21.5208 6.19583 21.9125 6.5875C22.3042 6.97917 22.5 7.45 22.5 8V19C22.5 19.55 22.3042 20.0208 21.9125 20.4125C21.5208 20.8042 21.05 21 20.5 21H4.5C3.95 21 3.47917 20.8042 3.0875 20.4125C2.69583 20.0208 2.5 19.55 2.5 19V8C2.5 7.45 2.69583 6.97917 3.0875 6.5875C3.47917 6.19583 3.95 6 4.5 6ZM4.5 14H20.5V8H15.4L17.5 10.85L15.9 12L12.5 7.4L9.1 12L7.5 10.85L9.55 8H4.5V14ZM9.5 6C9.78333 6 10.0208 5.90417 10.2125 5.7125C10.4042 5.52083 10.5 5.28333 10.5 5C10.5 4.71667 10.4042 4.47917 10.2125 4.2875C10.0208 4.09583 9.78333 4 9.5 4C9.21667 4 8.97917 4.09583 8.7875 4.2875C8.59583 4.47917 8.5 4.71667 8.5 5C8.5 5.28333 8.59583 5.52083 8.7875 5.7125C8.97917 5.90417 9.21667 6 9.5 6ZM15.5 6C15.7833 6 16.0208 5.90417 16.2125 5.7125C16.4042 5.52083 16.5 5.28333 16.5 5C16.5 4.71667 16.4042 4.47917 16.2125 4.2875C16.0208 4.09583 15.7833 4 15.5 4C15.2167 4 14.9792 4.09583 14.7875 4.2875C14.5958 4.47917 14.5 4.71667 14.5 5C14.5 5.28333 14.5958 5.52083 14.7875 5.7125C14.9792 5.90417 15.2167 6 15.5 6Z" fill="#424242"/>
</svg>
