<svg width="24" height="24" viewBox="0 0 24 24" fill="none" xmlns="http://www.w3.org/2000/svg">
<path d="M12 22C10.9 22 9.8375 21.8292 8.8125 21.4875C7.7875 21.1458 6.85 20.65 6 20L7.45 18.55C8.15 19.0333 8.88333 19.3958 9.65 19.6375C10.4167 19.8792 11.2 20 12 20C14.2167 20 16.1042 19.2208 17.6625 17.6625C19.2208 16.1042 20 14.2167 20 12C20 9.78333 19.2208 7.89583 17.6625 6.3375C16.1042 4.77917 14.2167 4 12 4C9.78333 4 7.89583 4.77917 6.3375 6.3375C4.77917 7.89583 4 9.78333 4 12H2C2 10.6167 2.2625 9.31667 2.7875 8.1C3.3125 6.88333 4.025 5.825 4.925 4.925C5.825 4.025 6.88333 3.3125 8.1 2.7875C9.31667 2.2625 10.6167 2 12 2C13.3833 2 14.6792 2.2625 15.8875 2.7875C17.0958 3.3125 18.1542 4.02917 19.0625 4.9375C19.9708 5.84583 20.6875 6.90417 21.2125 8.1125C21.7375 9.32083 22 10.6167 22 12C22 13.3667 21.7375 14.6583 21.2125 15.875C20.6875 17.0917 19.9708 18.1542 19.0625 19.0625C18.1542 19.9708 17.0958 20.6875 15.8875 21.2125C14.6792 21.7375 13.3833 22 12 22ZM3.975 17.925L8.05 13.85L11.05 16.35L16 11.4V14H18V8H12V10H14.6L10.95 13.65L7.95 11.15L2.925 16.175C3.10833 16.5583 3.27083 16.8708 3.4125 17.1125C3.55417 17.3542 3.74167 17.625 3.975 17.925Z" fill="#424242"/>
</svg>
