<svg width="68" height="68" viewBox="0 0 68 68" fill="none" xmlns="http://www.w3.org/2000/svg">
<path d="M34 0L41.9199 4.44267L51 4.55514L55.6375 12.3625L63.4449 17L63.5573 26.0801L68 34L63.5573 41.9199L63.4449 51L55.6375 55.6375L51 63.4449L41.9199 63.5573L34 68L26.0801 63.5573L17 63.4449L12.3625 55.6375L4.55514 51L4.44267 41.9199L0 34L4.44267 26.0801L4.55514 17L12.3625 12.3625L17 4.55514L26.0801 4.44267L34 0Z" fill="white"/>
<circle cx="34.0006" cy="34.0001" r="27.1432" stroke="#E2012D" stroke-width="1.0625"/>
<path d="M15.0039 36.6743H13.5786L13.5876 35.6222H15.0039C15.3576 35.6222 15.6558 35.5428 15.8986 35.3839C16.1414 35.222 16.3243 34.9867 16.4472 34.678C16.5731 34.3692 16.636 33.996 16.636 33.5584V33.2392C16.636 32.9035 16.6 32.6082 16.5281 32.3534C16.4592 32.0986 16.3557 31.8843 16.2179 31.7104C16.08 31.5366 15.9106 31.4062 15.7098 31.3193C15.509 31.2293 15.2781 31.1844 15.0174 31.1844H13.5516V30.1278H15.0174C15.455 30.1278 15.8552 30.2027 16.2179 30.3526C16.5836 30.4995 16.8998 30.7108 17.1666 30.9866C17.4334 31.2623 17.6387 31.592 17.7826 31.9757C17.9294 32.3564 18.0029 32.7806 18.0029 33.2482V33.5584C18.0029 34.023 17.9294 34.4472 17.7826 34.8309C17.6387 35.2145 17.4334 35.5443 17.1666 35.82C16.9028 36.0928 16.5866 36.3041 16.2179 36.454C15.8522 36.6009 15.4475 36.6743 15.0039 36.6743ZM14.3429 30.1278V36.6743H12.994V30.1278H14.3429ZM15.476 32.9739V33.7742H12.3241V32.9739H15.476ZM20.269 31.8094V36.6743H18.9696V31.8094H20.269ZM18.8886 30.5414C18.8886 30.3526 18.9546 30.1967 19.0865 30.0738C19.2184 29.9509 19.3952 29.8895 19.617 29.8895C19.8359 29.8895 20.0112 29.9509 20.1431 30.0738C20.278 30.1967 20.3454 30.3526 20.3454 30.5414C20.3454 30.7303 20.278 30.8861 20.1431 31.009C20.0112 31.1319 19.8359 31.1934 19.617 31.1934C19.3952 31.1934 19.2184 31.1319 19.0865 31.009C18.9546 30.8861 18.8886 30.7303 18.8886 30.5414ZM23.5782 36.7642C23.2006 36.7642 22.8618 36.7043 22.5621 36.5844C22.2623 36.4615 22.0075 36.2921 21.7977 36.0763C21.5909 35.8605 21.432 35.6102 21.3211 35.3254C21.2102 35.0377 21.1548 34.7319 21.1548 34.4082V34.2284C21.1548 33.8597 21.2072 33.5224 21.3121 33.2167C21.417 32.9109 21.5669 32.6457 21.7617 32.4209C21.9596 32.196 22.1994 32.0237 22.4812 31.9038C22.7629 31.7809 23.0807 31.7194 23.4344 31.7194C23.7791 31.7194 24.0848 31.7764 24.3516 31.8903C24.6184 32.0042 24.8417 32.1661 25.0215 32.3759C25.2044 32.5857 25.3423 32.8375 25.4352 33.1313C25.5281 33.422 25.5746 33.7458 25.5746 34.1025V34.642H21.7078V33.7787H24.3021V33.6798C24.3021 33.5 24.2692 33.3396 24.2032 33.1987C24.1403 33.0548 24.0443 32.9409 23.9155 32.857C23.7866 32.7731 23.6217 32.7311 23.4209 32.7311C23.25 32.7311 23.1031 32.7686 22.9802 32.8435C22.8573 32.9184 22.7569 33.0234 22.679 33.1582C22.604 33.2931 22.5471 33.452 22.5081 33.6348C22.4722 33.8147 22.4542 34.0125 22.4542 34.2284V34.4082C22.4542 34.603 22.4812 34.7829 22.5351 34.9478C22.5921 35.1126 22.6715 35.255 22.7734 35.3749C22.8783 35.4948 23.0042 35.5877 23.1511 35.6537C23.301 35.7196 23.4703 35.7526 23.6592 35.7526C23.893 35.7526 24.1103 35.7076 24.3111 35.6177C24.515 35.5248 24.6903 35.3854 24.8372 35.1995L25.4667 35.883C25.3648 36.0299 25.2254 36.1707 25.0485 36.3056C24.8747 36.4405 24.6648 36.5514 24.419 36.6383C24.1732 36.7223 23.893 36.7642 23.5782 36.7642ZM23.6502 30.1413L24.9046 31.1889H23.9829L23.2725 30.5639L22.5621 31.1889H21.6359L22.8948 30.1413H23.6502ZM25.1834 30.6134H24.5L24.437 30.0963C24.5629 30.0903 24.6633 30.0783 24.7383 30.0603C24.8162 30.0423 24.8732 30.0169 24.9091 29.9839C24.9481 29.9479 24.9676 29.903 24.9676 29.849C24.9676 29.7771 24.9436 29.7231 24.8956 29.6871C24.8477 29.6482 24.7817 29.6212 24.6978 29.6062C24.6169 29.5882 24.5225 29.5792 24.4145 29.5792L24.446 29.0801C24.6618 29.0801 24.8507 29.0966 25.0125 29.1296C25.1744 29.1626 25.3108 29.212 25.4217 29.278C25.5326 29.3409 25.615 29.4174 25.669 29.5073C25.7259 29.5972 25.7544 29.6991 25.7544 29.813C25.7544 29.9899 25.6945 30.1218 25.5746 30.2087C25.4577 30.2926 25.3273 30.3451 25.1834 30.3661V30.6134ZM27.6069 32.8165V36.6743H26.3075V31.8094H27.526L27.6069 32.8165ZM27.427 34.071H27.0673C27.0673 33.7323 27.1078 33.4205 27.1887 33.1358C27.2727 32.848 27.3941 32.5992 27.5529 32.3894C27.7148 32.1766 27.9141 32.0117 28.1509 31.8948C28.3877 31.7779 28.662 31.7194 28.9737 31.7194C29.1896 31.7194 29.3874 31.7524 29.5673 31.8184C29.7471 31.8813 29.9015 31.9817 30.0304 32.1196C30.1623 32.2545 30.2642 32.4313 30.3361 32.6502C30.4081 32.866 30.444 33.1253 30.444 33.428V36.6743H29.1491V33.5719C29.1491 33.3501 29.1191 33.1792 29.0592 33.0593C28.9992 32.9394 28.9138 32.8555 28.8029 32.8075C28.695 32.7596 28.5646 32.7356 28.4117 32.7356C28.2439 32.7356 28.097 32.7701 27.9711 32.839C27.8482 32.908 27.7463 33.0039 27.6653 33.1268C27.5844 33.2467 27.5245 33.3876 27.4855 33.5494C27.4465 33.7113 27.427 33.8851 27.427 34.071ZM30.3226 33.9226L29.8595 33.9811C29.8595 33.6633 29.8985 33.3681 29.9764 33.0953C30.0573 32.8225 30.1757 32.5827 30.3316 32.3759C30.4905 32.1691 30.6868 32.0087 30.9206 31.8948C31.1544 31.7779 31.4242 31.7194 31.73 31.7194C31.9638 31.7194 32.1766 31.7539 32.3684 31.8229C32.5603 31.8888 32.7236 31.9952 32.8585 32.1421C32.9964 32.286 33.1013 32.4748 33.1732 32.7086C33.2482 32.9424 33.2857 33.2287 33.2857 33.5674V36.6743H31.9862V33.5674C31.9862 33.3426 31.9563 33.1717 31.8963 33.0548C31.8394 32.9349 31.7554 32.8525 31.6445 32.8075C31.5366 32.7596 31.4077 32.7356 31.2578 32.7356C31.102 32.7356 30.9656 32.7671 30.8487 32.83C30.7318 32.89 30.6344 32.9739 30.5564 33.0818C30.4785 33.1897 30.42 33.3156 30.3811 33.4595C30.3421 33.6004 30.3226 33.7547 30.3226 33.9226ZM39.4545 35.6132V29.7681H40.7584V36.6743H39.5849L39.4545 35.6132ZM36.3791 34.3003V34.2059C36.3791 33.8342 36.421 33.497 36.505 33.1942C36.5889 32.8885 36.7118 32.6262 36.8737 32.4074C37.0355 32.1886 37.2349 32.0192 37.4717 31.8993C37.7085 31.7794 37.9783 31.7194 38.281 31.7194C38.5658 31.7194 38.8146 31.7794 39.0274 31.8993C39.2432 32.0192 39.426 32.19 39.5759 32.4119C39.7288 32.6307 39.8517 32.89 39.9446 33.1897C40.0375 33.4865 40.105 33.8117 40.1469 34.1654V34.3722C40.105 34.711 40.0375 35.0257 39.9446 35.3164C39.8517 35.6072 39.7288 35.862 39.5759 36.0808C39.426 36.2966 39.2432 36.4645 39.0274 36.5844C38.8116 36.7043 38.5598 36.7642 38.272 36.7642C37.9693 36.7642 37.6995 36.7028 37.4627 36.5799C37.2289 36.457 37.031 36.2846 36.8692 36.0628C36.7103 35.841 36.5889 35.5802 36.505 35.2805C36.421 34.9807 36.3791 34.654 36.3791 34.3003ZM37.674 34.2059V34.3003C37.674 34.5011 37.689 34.6885 37.719 34.8623C37.7519 35.0362 37.8044 35.1906 37.8763 35.3254C37.9513 35.4573 38.0472 35.5607 38.1641 35.6357C38.284 35.7076 38.4294 35.7436 38.6002 35.7436C38.822 35.7436 39.0049 35.6941 39.1488 35.5952C39.2927 35.4933 39.4021 35.3539 39.477 35.1771C39.5549 35.0002 39.5999 34.7964 39.6119 34.5656V33.9766C39.6029 33.7877 39.5759 33.6184 39.531 33.4685C39.489 33.3156 39.426 33.1852 39.3421 33.0773C39.2612 32.9694 39.1593 32.8855 39.0364 32.8255C38.9165 32.7656 38.7741 32.7356 38.6092 32.7356C38.4414 32.7356 38.2975 32.7746 38.1776 32.8525C38.0577 32.9274 37.9603 33.0308 37.8853 33.1627C37.8134 33.2946 37.7594 33.4505 37.7235 33.6304C37.6905 33.8072 37.674 33.999 37.674 34.2059ZM44.3959 35.5772V33.41C44.3959 33.2542 44.3704 33.1208 44.3195 33.0099C44.2685 32.896 44.1891 32.8075 44.0812 32.7446C43.9763 32.6816 43.8399 32.6502 43.672 32.6502C43.5281 32.6502 43.4037 32.6756 43.2988 32.7266C43.1939 32.7746 43.113 32.845 43.056 32.9379C42.9991 33.0279 42.9706 33.1343 42.9706 33.2572H41.6757C41.6757 33.0503 41.7236 32.854 41.8196 32.6682C41.9155 32.4823 42.0549 32.3189 42.2377 32.1781C42.4206 32.0342 42.6379 31.9218 42.8897 31.8408C43.1445 31.7599 43.4292 31.7194 43.744 31.7194C44.1216 31.7194 44.4574 31.7824 44.7511 31.9083C45.0449 32.0342 45.2757 32.223 45.4435 32.4748C45.6144 32.7266 45.6998 33.0413 45.6998 33.419V35.5008C45.6998 35.7676 45.7163 35.9864 45.7493 36.1572C45.7823 36.3251 45.8302 36.472 45.8932 36.5979V36.6743H44.5848C44.5218 36.5424 44.4738 36.3776 44.4409 36.1797C44.4109 35.9789 44.3959 35.7781 44.3959 35.5772ZM44.5668 33.7113L44.5758 34.4442H43.8519C43.681 34.4442 43.5326 34.4637 43.4067 34.5026C43.2808 34.5416 43.1774 34.597 43.0965 34.669C43.0156 34.7379 42.9556 34.8189 42.9166 34.9118C42.8807 35.0047 42.8627 35.1066 42.8627 35.2175C42.8627 35.3284 42.8882 35.4289 42.9391 35.5188C42.9901 35.6057 43.0635 35.6746 43.1594 35.7256C43.2554 35.7736 43.3678 35.7975 43.4967 35.7975C43.6915 35.7975 43.8609 35.7586 44.0047 35.6806C44.1486 35.6027 44.2595 35.5068 44.3375 35.3929C44.4184 35.279 44.4604 35.1711 44.4634 35.0692L44.8051 35.6177C44.7571 35.7406 44.6912 35.868 44.6072 35.9999C44.5263 36.1318 44.4229 36.2562 44.297 36.3731C44.1711 36.487 44.0197 36.5814 43.8429 36.6563C43.666 36.7283 43.4562 36.7642 43.2134 36.7642C42.9047 36.7642 42.6244 36.7028 42.3726 36.5799C42.1238 36.454 41.926 36.2816 41.7791 36.0628C41.6352 35.841 41.5633 35.5892 41.5633 35.3075C41.5633 35.0527 41.6112 34.8264 41.7071 34.6285C41.8031 34.4307 41.9439 34.2643 42.1298 34.1294C42.3186 33.9915 42.5539 33.8881 42.8357 33.8192C43.1175 33.7473 43.4442 33.7113 43.8159 33.7113H44.5668ZM47.9659 32.848V36.6743H46.671V31.8094H47.885L47.9659 32.848ZM47.7771 34.071H47.4264C47.4264 33.7113 47.4728 33.3876 47.5658 33.0998C47.6587 32.809 47.7891 32.5617 47.9569 32.3579C48.1248 32.1511 48.3241 31.9937 48.5549 31.8858C48.7888 31.7749 49.0495 31.7194 49.3373 31.7194C49.5651 31.7194 49.7734 31.7524 49.9623 31.8184C50.1511 31.8843 50.313 31.9892 50.4479 32.1331C50.5858 32.277 50.6907 32.4673 50.7626 32.7041C50.8375 32.9409 50.875 33.2302 50.875 33.5719V36.6743H49.5711V33.5674C49.5711 33.3516 49.5411 33.1837 49.4812 33.0638C49.4212 32.9439 49.3328 32.86 49.2159 32.812C49.102 32.7611 48.9611 32.7356 48.7932 32.7356C48.6194 32.7356 48.468 32.7701 48.3391 32.839C48.2132 32.908 48.1083 33.0039 48.0244 33.1268C47.9435 33.2467 47.882 33.3876 47.84 33.5494C47.7981 33.7113 47.7771 33.8851 47.7771 34.071ZM53.1231 29.7681V36.6743H51.8282V29.7681H53.1231ZM52.9388 34.071H52.5836C52.5866 33.7323 52.6316 33.4205 52.7185 33.1358C52.8054 32.848 52.9298 32.5992 53.0917 32.3894C53.2535 32.1766 53.4469 32.0117 53.6717 31.8948C53.8995 31.7779 54.1513 31.7194 54.4271 31.7194C54.6669 31.7194 54.8842 31.7539 55.079 31.8229C55.2768 31.8888 55.4462 31.9967 55.5871 32.1466C55.731 32.2935 55.8419 32.4868 55.9198 32.7266C55.9977 32.9664 56.0367 33.2572 56.0367 33.5989V36.6743H54.7328V33.5899C54.7328 33.3741 54.7013 33.2047 54.6384 33.0818C54.5784 32.9559 54.49 32.8675 54.3731 32.8165C54.2592 32.7626 54.1183 32.7356 53.9505 32.7356C53.7646 32.7356 53.6057 32.7701 53.4739 32.839C53.345 32.908 53.2415 33.0039 53.1636 33.1268C53.0857 33.2467 53.0287 33.3876 52.9928 33.5494C52.9568 33.7113 52.9388 33.8851 52.9388 34.071Z" fill="#E2012D"/>
<line x1="11.8604" y1="43.1336" x2="56.1394" y2="43.1336" stroke="#E2012D" stroke-width="0.708333"/>
<line x1="11.8594" y1="23.3663" x2="56.1384" y2="23.3663" stroke="#E2012D" stroke-width="0.708333"/>
<g clip-path="url(#clip0_55580_25949)">
<path d="M32.448 19.9251L33.0707 17.296L30.9951 15.5269L33.723 15.2897L34.7905 12.8088L35.8579 15.2995L38.5858 15.5269L36.5102 17.296L37.1329 19.9251L34.7905 18.5315L32.448 19.9251Z" fill="#E2012D"/>
</g>
<g clip-path="url(#clip1_55580_25949)">
<path d="M32.449 53.9254L33.0717 51.2963L30.9961 49.5271L33.724 49.2899L34.7914 46.8091L35.8589 49.2998L38.5868 49.5271L36.5112 51.2963L37.1339 53.9254L34.7914 52.5318L32.449 53.9254Z" fill="#E2012D"/>
</g>
<path d="M44.3094 19.9254L44.932 17.2963L42.8564 15.5271L45.5844 15.2899L46.6518 12.8091L47.7192 15.2998L50.4471 15.5271L48.3716 17.2963L48.9942 19.9254L46.6518 18.5318L44.3094 19.9254Z" fill="#E2012D"/>
<path d="M44.3094 53.9251L44.932 51.296L42.8564 49.5269L45.5844 49.2897L46.6518 46.8088L47.7192 49.2995L50.4471 49.5269L48.3716 51.296L48.9942 53.9251L46.6518 52.5315L44.3094 53.9251Z" fill="#E2012D"/>
<path d="M20.5867 19.9251L21.2094 17.296L19.1338 15.5269L21.8617 15.2897L22.9291 12.8088L23.9966 15.2995L26.7245 15.5269L24.6489 17.296L25.2716 19.9251L22.9291 18.5315L20.5867 19.9251Z" fill="#E2012D"/>
<path d="M20.5886 53.9259L21.2113 51.2968L19.1357 49.5276L21.8636 49.2904L22.9311 46.8096L23.9985 49.3003L26.7264 49.5276L24.6509 51.2968L25.2735 53.9259L22.9311 52.5322L20.5886 53.9259Z" fill="#E2012D"/>
<defs>
<clipPath id="clip0_55580_25949">
<rect width="9.48837" height="9.48837" fill="white" transform="translate(30.0459 11.8599)"/>
</clipPath>
<clipPath id="clip1_55580_25949">
<rect width="9.48837" height="9.48837" fill="white" transform="translate(30.0469 45.8601)"/>
</clipPath>
</defs>
</svg>
